<svg width="287" height="35" viewBox="0 0 287 35" fill="none" xmlns="http://www.w3.org/2000/svg">
<g clip-path="url(#clip0_9_1846)">
<path d="M17.3615 0.347969H7.94L13.8766 10.6288L0 34.6597H9.42678L23.2981 10.6288L17.3615 0.347969Z" fill="#FF3000"/>
<path d="M31.1168 0.347969H21.6953L27.6318 10.6288L13.7553 34.6597H23.1821L37.0534 10.6288L31.1168 0.347969Z" fill="#FF3000"/>
<path d="M44.8721 0.347969H35.4506L41.3871 10.6288L27.5106 34.6597H36.9374L50.8086 10.6288L44.8721 0.347969Z" fill="#FF3000"/>
<path d="M81.7884 0.342695H88.405V34.6597H82.769V15.1472L77.133 34.6597H72.2298L66.5937 15.1472V34.6597H60.9577V0.342695H67.5744L74.6814 24.6583L81.7884 0.342695Z" fill="white"/>
<path d="M96.2554 34.6597H90.6194L99.192 0.342695H106.057L114.634 34.6597H108.998L107.085 26.8146H98.1112L96.2501 34.6597H96.2554ZM99.4873 21.1786H105.714L102.624 8.33542L99.4873 21.1786Z" fill="white"/>
<path d="M116.453 7.35478C116.453 3.18971 119.638 0 123.808 0H128.516C132.681 0 135.871 3.18444 135.871 7.35478V11.62H130.235V7.35478C130.235 6.27397 129.55 5.6413 128.522 5.6413H123.813C122.785 5.6413 122.1 6.27924 122.1 7.35478V9.16844C122.1 10.7396 122.638 11.2773 123.813 12.1103L132.934 18.4845C135.776 20.4458 136.119 22.6496 136.119 25.1012V27.6529C136.119 31.818 132.934 35.0077 128.764 35.0077H123.471C119.306 35.0077 116.116 31.8233 116.116 27.6529V22.8974H121.752V27.6529C121.752 28.7337 122.437 29.3664 123.465 29.3664H128.759C129.787 29.3664 130.472 28.7285 130.472 27.6529V25.5915C130.472 24.0204 129.935 23.4826 128.759 22.6496L119.638 16.2754C116.796 14.3141 116.453 12.1103 116.453 9.65875V7.35478Z" fill="white"/>
<path d="M156.702 0.342695V5.97873H150.085V34.6597H144.449V5.97873H137.832V0.342695H156.707H156.702Z" fill="white"/>
<path d="M176.557 5.97873H164.789V14.409H175.576V19.9976H164.789V29.0184H176.557V34.6545H159.153V0.342695H176.557V5.97873Z" fill="white"/>
<path d="M194.208 34.6597V23.1399C194.208 22.0591 193.523 21.4264 192.495 21.4264H185.878V34.665H180.242V0.342695H192.5C196.665 0.342695 199.855 3.28461 199.855 7.69748V12.7483C199.855 15.6902 198.827 17.6515 196.913 18.3843C198.827 19.1172 199.855 21.0784 199.855 24.0204V34.6597H194.219H194.208ZM192.495 15.8378C193.523 15.8378 194.208 15.1999 194.208 14.1243V7.70275C194.208 6.62194 193.523 5.98927 192.495 5.98927H185.878V15.8431H192.495V15.8378Z" fill="white"/>
<path d="M223.77 20.9361V27.6529C223.77 31.818 220.586 35.0077 216.415 35.0077H211.122C206.957 35.0077 203.767 31.8233 203.767 27.6529V7.35478C203.767 2.94191 206.952 0 211.122 0H216.415C220.58 0 223.77 2.94191 223.77 7.35478V13.5813H218.134V7.35478C218.134 6.27397 217.449 5.6413 216.42 5.6413H211.127C210.099 5.6413 209.414 6.27924 209.414 7.35478V27.6529C209.414 28.7337 210.099 29.3664 211.127 29.3664H216.42C217.449 29.3664 218.134 28.7285 218.134 27.6529V20.9361H223.77Z" fill="white"/>
<path d="M230.634 34.6597H224.998L233.576 0.342695H240.441L249.019 34.6597H243.383L241.469 26.8146H232.496L230.634 34.6597ZM233.872 21.1786H240.098L237.009 8.33542L233.872 21.1786Z" fill="white"/>
<path d="M272.064 0.342695H278.68V34.6597H273.044V15.1472L267.408 34.6597H262.505L256.869 15.1472V34.6597H251.233V0.342695H257.85L264.957 24.6583L272.064 0.342695Z" fill="white"/>
<path d="M283.816 0.342695V0.922642H283.125V3.55877H282.556V0.922642H281.865V0.342695H283.816ZM286.283 0.342695H287V3.55877H286.42V1.62912L285.877 3.55877H285.381L284.838 1.62912V3.55877H284.258V0.342695H284.975L285.629 2.71521L286.283 0.342695Z" fill="white"/>
</g>
<defs>
<clipPath id="clip0_9_1846">
<rect width="287" height="35.0024" fill="white"/>
</clipPath>
</defs>
</svg>
