<?xml version="1.0" encoding="UTF-8"?>
<svg xmlns="http://www.w3.org/2000/svg" width="254.1mm" height="54.46mm" xmlns:xlink="http://www.w3.org/1999/xlink" viewBox="0 0 720.28 154.37">
  <defs>
    <style>
      .av {
        stroke-width: .25px;
      }

      .av, .aw {
        fill: none;
        stroke: #191916;
      }

      .ax {
        fill: url(#as);
      }

      .ay {
        fill: #443e3e;
      }

      .az {
        fill: url(#am);
      }

      .ba {
        fill: url(#w);
      }

      .bb {
        fill: #191916;
        stroke: #fff;
      }

      .bc {
        fill: url(#ak);
      }

      .bd {
        fill: url(#t);
      }

      .be {
        fill: url(#ap);
      }

      .be, .bf {
        mix-blend-mode: multiply;
      }

      .bg {
        fill: url(#ae);
      }

      .bh {
        fill: url(#aj);
      }

      .bi {
        fill: #4c4a4f;
      }

      .bj {
        fill: #76747a;
      }

      .bk {
        fill: url(#c);
      }

      .bl {
        fill: url(#d);
      }

      .bm {
        fill: url(#l);
      }

      .bn {
        fill: url(#ar);
      }

      .bo {
        fill: url(#h);
      }

      .bp {
        fill: url(#o);
      }

      .bq {
        fill: url(#j);
      }

      .br {
        fill: #3c3c3b;
      }

      .bs {
        fill: url(#g);
      }

      .bt {
        fill: url(#z);
      }

      .bu {
        fill: url(#q);
      }

      .bv {
        fill: url(#m);
      }

      .bw {
        fill: url(#aa);
      }

      .bx {
        fill: url(#ab);
      }

      .by {
        isolation: isolate;
      }

      .bz {
        fill: url(#e);
      }

      .ca {
        fill: url(#i);
      }

      .cb {
        fill: url(#ai);
      }

      .cc {
        fill: url(#ac);
      }

      .cd {
        fill: url(#f);
      }

      .ce {
        fill: url(#v);
      }

      .cf {
        fill: url(#x);
      }

      .cg {
        fill: url(#p);
      }

      .ch {
        fill: url(#y);
      }

      .ci {
        fill: #a02417;
      }

      .aw {
        stroke-width: .5px;
      }

      .cj {
        fill: #a92a18;
      }

      .ck {
        fill: #393534;
      }

      .cl {
        fill: url(#al);
      }

      .cm {
        fill: url(#at);
      }

      .cn {
        fill: url(#r);
      }

      .co {
        fill: url(#ag);
      }

      .cp {
        fill: url(#n);
      }

      .bf {
        fill: url(#an);
      }

      .cq {
        fill: url(#u);
      }

      .cr {
        fill: url(#af);
      }

      .cs {
        fill: url(#ad);
      }

      .ct {
        fill: url(#au);
      }

      .cu {
        fill: url(#ah);
      }

      .cv {
        fill: #827b7b;
      }

      .cw {
        fill: url(#s);
      }
    </style>
    <linearGradient id="c" x1="207.05" y1="104.9" x2="207.05" y2=".6" gradientUnits="userSpaceOnUse">
      <stop offset="0" stop-color="#a51008"/>
      <stop offset=".4" stop-color="#be0d0d"/>
      <stop offset=".65" stop-color="#c90c0f"/>
      <stop offset=".9" stop-color="#c30c0d"/>
      <stop offset=".99" stop-color="#c00d0d"/>
    </linearGradient>
    <linearGradient id="d" x1="277.89" y1="104.49" x2="277.89" y2="25.74" xlink:href="#c"/>
    <linearGradient id="e" x1="331.04" y1="102.54" x2="331.04" y2="2.96" xlink:href="#c"/>
    <linearGradient id="f" x1="367.86" y1="102.54" x2="367.86" y2="2.13" xlink:href="#c"/>
    <linearGradient id="g" x1="421.36" y1="104.62" x2="421.36" y2="2.96" xlink:href="#c"/>
    <linearGradient id="h" x1="498.97" x2="498.97" xlink:href="#c"/>
    <linearGradient id="i" x1="579.31" y1="102.54" x2="579.31" y2="2.96" xlink:href="#c"/>
    <linearGradient id="j" x1="673.21" y1="102.54" x2="673.21" y2="2.96" xlink:href="#c"/>
    <linearGradient id="l" data-name="New Gradient Swatch 4" x1="0" y1="93.63" x2="131.09" y2="93.63" gradientUnits="userSpaceOnUse">
      <stop offset="0" stop-color="#e3d2ad"/>
      <stop offset="1" stop-color="#ebd9b4"/>
    </linearGradient>
    <linearGradient id="m" data-name="New Gradient Swatch 3" x1=".15" y1="125.28" x2="130.76" y2="125.28" gradientUnits="userSpaceOnUse">
      <stop offset="0" stop-color="#f6e5c3"/>
      <stop offset=".24" stop-color="#796725"/>
      <stop offset=".53" stop-color="#f6e5c3"/>
      <stop offset=".78" stop-color="#796725"/>
      <stop offset="1" stop-color="#f6e5c3"/>
    </linearGradient>
    <linearGradient id="n" data-name="New Gradient Swatch 7" x1="42.38" y1="74.37" x2="122.18" y2="74.37" gradientUnits="userSpaceOnUse">
      <stop offset="0" stop-color="#55130a"/>
      <stop offset=".02" stop-color="#60130c"/>
      <stop offset=".08" stop-color="#841513"/>
      <stop offset=".15" stop-color="#a21718"/>
      <stop offset=".22" stop-color="#b9191d"/>
      <stop offset=".3" stop-color="#ca1a20"/>
      <stop offset=".38" stop-color="#d31a22"/>
      <stop offset=".49" stop-color="#d71b23"/>
      <stop offset=".6" stop-color="#d31a22"/>
      <stop offset=".69" stop-color="#c91a20"/>
      <stop offset=".77" stop-color="#b8191d"/>
      <stop offset=".85" stop-color="#9f1718"/>
      <stop offset=".92" stop-color="#801512"/>
      <stop offset=".99" stop-color="#5a130b"/>
      <stop offset="1" stop-color="#55130a"/>
    </linearGradient>
    <linearGradient id="o" data-name="New Gradient Swatch 5" x1="10.4" y1="89.37" x2="24.54" y2="89.37" gradientUnits="userSpaceOnUse">
      <stop offset="0" stop-color="#55130a"/>
      <stop offset="1" stop-color="#a72719"/>
    </linearGradient>
    <linearGradient id="p" data-name="New Gradient Swatch 6" x1="38.19" y1="105.84" x2="61.71" y2="105.84" gradientUnits="userSpaceOnUse">
      <stop offset="0" stop-color="#55130a"/>
      <stop offset="0" stop-color="#55130a"/>
      <stop offset=".08" stop-color="#721a0f"/>
      <stop offset=".17" stop-color="#891f13"/>
      <stop offset=".26" stop-color="#9a2316"/>
      <stop offset=".36" stop-color="#a32618"/>
      <stop offset=".49" stop-color="#a72719"/>
      <stop offset=".62" stop-color="#a32618"/>
      <stop offset=".73" stop-color="#992316"/>
      <stop offset=".83" stop-color="#881f13"/>
      <stop offset=".92" stop-color="#70190e"/>
      <stop offset="1" stop-color="#55130a"/>
    </linearGradient>
    <linearGradient id="q" data-name="New Gradient Swatch 6" x1="69.05" y1="90.93" x2="94.15" y2="90.93" xlink:href="#p"/>
    <linearGradient id="r" data-name="New Gradient Swatch 8" x1="90.08" y1="86.02" x2="119.54" y2="86.02" gradientUnits="userSpaceOnUse">
      <stop offset="0" stop-color="#55130a"/>
      <stop offset="0" stop-color="#62160c"/>
      <stop offset="0" stop-color="#781b11"/>
      <stop offset="0" stop-color="#891f14"/>
      <stop offset="0" stop-color="#952217"/>
      <stop offset="0" stop-color="#9c2418"/>
      <stop offset="0" stop-color="#9e2519"/>
      <stop offset="1" stop-color="#7e2411"/>
    </linearGradient>
    <linearGradient id="s" data-name="Neues Verlaufsfeld" x1="45.5" y1="71.15" x2="47.81" y2="71.15" gradientUnits="userSpaceOnUse">
      <stop offset="0" stop-color="#837777"/>
      <stop offset=".48" stop-color="#8f8686"/>
      <stop offset="1" stop-color="#837777"/>
    </linearGradient>
    <linearGradient id="t" data-name="Neues Verlaufsfeld" x1="45.47" y1="71.04" x2="46" y2="71.04" xlink:href="#s"/>
    <linearGradient id="u" x1="48.83" y1="72.05" x2="49.44" y2="72.87" gradientUnits="userSpaceOnUse">
      <stop offset="0" stop-color="#6d6366"/>
      <stop offset="1" stop-color="#b7afaf"/>
    </linearGradient>
    <linearGradient id="v" x1="50.58" y1="74.93" x2="51.22" y2="75.71" xlink:href="#u"/>
    <linearGradient id="w" data-name="Neues Verlaufsfeld" x1="49.83" y1="72.37" x2="52.44" y2="72.37" xlink:href="#s"/>
    <linearGradient id="x" data-name="Neues Verlaufsfeld" x1="45.52" y1="74.78" x2="51.73" y2="74.78" xlink:href="#s"/>
    <linearGradient id="y" data-name="Neues Verlaufsfeld" x1="53.28" y1="69.5" x2="54.08" y2="69.5" xlink:href="#s"/>
    <linearGradient id="z" x1="45.48" y1="76" x2="54.13" y2="76" gradientUnits="userSpaceOnUse">
      <stop offset="0" stop-color="#837777"/>
      <stop offset=".48" stop-color="#8f8686"/>
      <stop offset="1" stop-color="#837777"/>
    </linearGradient>
    <linearGradient id="aa" x1="46.69" y1="74.95" x2="54.08" y2="74.95" xlink:href="#u"/>
    <linearGradient id="ab" x1="46.69" y1="79.19" x2="54.09" y2="79.19" xlink:href="#u"/>
    <linearGradient id="ac" x1="50.52" y1="80.35" x2="51.02" y2="80.85" xlink:href="#u"/>
    <linearGradient id="ad" x1="46.69" y1="81.44" x2="54.16" y2="81.44" xlink:href="#z"/>
    <linearGradient id="ae" x1="52.78" y1="83.99" x2="54.12" y2="83.99" xlink:href="#u"/>
    <linearGradient id="af" x1="51.56" y1="81.93" x2="54.08" y2="81.93" xlink:href="#u"/>
    <linearGradient id="ag" x1="50.89" y1="84.52" x2="51.58" y2="85.21" xlink:href="#u"/>
    <linearGradient id="ah" data-name="Shaft" x1="46.22" y1="61.17" x2="53.36" y2="61.17" gradientUnits="userSpaceOnUse">
      <stop offset="0" stop-color="#576368"/>
      <stop offset="0" stop-color="#555658"/>
      <stop offset="0" stop-color="#554f4e"/>
      <stop offset=".14" stop-color="#5e5857"/>
      <stop offset=".37" stop-color="#787071"/>
      <stop offset=".43" stop-color="#82797a"/>
      <stop offset=".6" stop-color="#7a7172"/>
      <stop offset=".85" stop-color="#645d5d"/>
      <stop offset="1" stop-color="#554f4e"/>
    </linearGradient>
    <linearGradient id="ai" data-name="Unbenannter Verlauf 217" x1="41.91" y1="60.23" x2="57.67" y2="60.23" gradientUnits="userSpaceOnUse">
      <stop offset="0" stop-color="#576368"/>
      <stop offset="0" stop-color="#555759"/>
      <stop offset="0" stop-color="#554f4f"/>
      <stop offset=".1" stop-color="#5c5758"/>
      <stop offset=".27" stop-color="#726e72"/>
      <stop offset=".43" stop-color="#8b8891"/>
      <stop offset=".54" stop-color="#848189"/>
      <stop offset=".7" stop-color="#706d73"/>
      <stop offset=".89" stop-color="#514e50"/>
      <stop offset="1" stop-color="#3d3a3a"/>
    </linearGradient>
    <linearGradient id="aj" x1="35.55" y1="46.24" x2="63.58" y2="46.24" gradientUnits="userSpaceOnUse">
      <stop offset="0" stop-color="#302b2b"/>
      <stop offset=".06" stop-color="#3d3839"/>
      <stop offset=".17" stop-color="#514c4e"/>
      <stop offset=".27" stop-color="#5d585a"/>
      <stop offset=".38" stop-color="#625c5f"/>
      <stop offset=".54" stop-color="#5d575a"/>
      <stop offset=".72" stop-color="#514b4d"/>
      <stop offset=".91" stop-color="#3c3738"/>
      <stop offset="1" stop-color="#302b2b"/>
    </linearGradient>
    <linearGradient id="ak" x1="32.92" y1="45.03" x2="66.67" y2="45.03" gradientUnits="userSpaceOnUse">
      <stop offset="0" stop-color="#302b2b"/>
      <stop offset="0" stop-color="#322d2d"/>
      <stop offset=".1" stop-color="#4e474a"/>
      <stop offset=".2" stop-color="#615a5f"/>
      <stop offset=".29" stop-color="#6d666b"/>
      <stop offset=".38" stop-color="#726a70"/>
      <stop offset=".52" stop-color="#6d666b"/>
      <stop offset=".68" stop-color="#615a5e"/>
      <stop offset=".84" stop-color="#4d4649"/>
      <stop offset="1" stop-color="#302b2b"/>
      <stop offset="1" stop-color="#302b2b"/>
    </linearGradient>
    <linearGradient id="al" y1="52.36" y2="52.36" xlink:href="#ak"/>
    <linearGradient id="am" data-name="New Gradient Swatch 4" x1="31.07" y1="89.89" x2="61.71" y2="89.89" xlink:href="#l"/>
    <linearGradient id="an" data-name="Unbenannter Verlauf 91" x1="48.6" y1="24.95" x2="57.15" y2="23.31" gradientUnits="userSpaceOnUse">
      <stop offset="0" stop-color="#1d1d1b" stop-opacity="0"/>
      <stop offset=".36" stop-color="#1d1d1b" stop-opacity=".17"/>
      <stop offset=".79" stop-color="#1d1d1b" stop-opacity=".65"/>
      <stop offset="1" stop-color="#1d1d1b"/>
    </linearGradient>
    <linearGradient id="ap" data-name="Unbenannter Verlauf 85" x1="39.93" y1="23.84" x2="46.34" y2="24.54" gradientUnits="userSpaceOnUse">
      <stop offset="0" stop-color="#1d1d1b"/>
      <stop offset=".14" stop-color="#1d1d1b" stop-opacity=".79"/>
      <stop offset=".63" stop-color="#1d1d1b" stop-opacity=".21"/>
      <stop offset="1" stop-color="#1d1d1b" stop-opacity="0"/>
    </linearGradient>
    <linearGradient id="ar" x1="45.2" y1="2.34" x2="51.68" y2="2.34" xlink:href="#ak"/>
    <linearGradient id="as" x1="46.82" y1="4.52" x2="50.22" y2="4.52" gradientUnits="userSpaceOnUse">
      <stop offset="0" stop-color="#373334"/>
      <stop offset=".02" stop-color="#3a3637"/>
      <stop offset=".14" stop-color="#504a4d"/>
      <stop offset=".26" stop-color="#5e565a"/>
      <stop offset=".36" stop-color="#635b5f"/>
      <stop offset=".54" stop-color="#5e565a"/>
      <stop offset=".76" stop-color="#50494c"/>
      <stop offset=".99" stop-color="#383435"/>
      <stop offset="1" stop-color="#373334"/>
    </linearGradient>
    <linearGradient id="at" x1="44.28" y1="5.81" x2="53.03" y2="5.81" xlink:href="#ak"/>
    <linearGradient id="au" x1="45.2" y1="1.35" x2="51.68" y2="1.35" gradientUnits="userSpaceOnUse">
      <stop offset="0" stop-color="#302b2b"/>
      <stop offset=".08" stop-color="#3d393a"/>
      <stop offset=".26" stop-color="#575355"/>
      <stop offset=".36" stop-color="#615d60"/>
      <stop offset=".52" stop-color="#5a5658"/>
      <stop offset=".76" stop-color="#484344"/>
      <stop offset="1" stop-color="#302b2b"/>
    </linearGradient>
  </defs>
  <g class="by">
    <g id="a" data-name="Ebene 2">
      <g id="b" data-name="Logo">
        <g>
          <path class="bk" d="M175.59,68.79h22.54v2.9c0,5.45.68,9.3,2.04,11.53,1.36,2.23,3.64,3.35,6.86,3.35,2.58,0,4.62-.85,6.11-2.54,1.49-1.7,2.24-4.01,2.24-6.93,0-4.81-3.68-9.43-11.05-13.86-1.19-.77-2.11-1.36-2.75-1.74l-1.16-.71c-9.83-6.29-15.94-11.03-18.34-14.22-1.72-2.41-3.04-5.13-3.94-8.14-.91-3.02-1.36-6.31-1.36-9.89,0-8.7,2.66-15.53,7.97-20.49,5.31-4.96,12.63-7.43,21.94-7.43,10.13,0,17.86,2.43,23.19,7.3,5.33,4.87,8,11.91,8,21.13,0,.39-.02.93-.07,1.62-.05.69-.07,1.23-.07,1.61h-21.94v-1.23c0-4.34-.72-7.63-2.17-9.86-1.44-2.24-3.54-3.35-6.29-3.35-2.34,0-4.22.79-5.64,2.36-1.42,1.57-2.13,3.65-2.13,6.23,0,4.22,4.03,8.69,12.08,13.43,1.46.9,2.58,1.59,3.37,2.06.64.35,1.52.88,2.65,1.62,8.57,5.17,14.05,9.52,16.46,13.05,1.5,2.29,2.64,4.88,3.44,7.79.79,2.91,1.19,6.06,1.19,9.47,0,9.95-2.73,17.62-8.17,23-5.45,5.39-13.23,8.08-23.35,8.08-10.62,0-18.6-2.57-23.93-7.72-5.33-5.15-8-12.8-8-22.97,0-.65,0-1.32.03-2.03.02-.71.1-1.84.23-3.39Z"/>
          <path class="bl" d="M248.65,65.15c0-14.56,2.2-24.76,6.59-30.62,4.4-5.86,11.94-8.78,22.65-8.78s18.24,2.91,22.64,8.72c4.4,5.82,6.6,16.04,6.6,30.68s-2.2,24.75-6.6,30.59c-4.4,5.84-11.94,8.75-22.64,8.75s-18.31-2.9-22.68-8.69c-4.37-5.79-6.56-16.01-6.56-30.65ZM271.02,65.15c0,10.48.48,17.04,1.45,19.68.96,2.64,2.77,3.96,5.43,3.96s4.45-1.27,5.42-3.8c.96-2.53,1.45-9.15,1.45-19.84s-.48-17.32-1.45-19.88c-.97-2.56-2.77-3.84-5.42-3.84s-4.46,1.33-5.43,4c-.96,2.67-1.45,9.24-1.45,19.72Z"/>
          <path class="bz" d="M341.93,102.54h-21.78V2.96h21.78v99.58Z"/>
          <path class="cd" d="M356.97,20.19V2.13h21.78v18.05h-21.78ZM356.97,102.54V27.68h21.78v74.86h-21.78Z"/>
          <path class="bs" d="M450.37,2.96v99.58h-20.22v-8.25c-2.09,3.36-4.65,5.92-7.67,7.68-3.02,1.76-6.37,2.65-10.05,2.65-3.09,0-5.89-.53-8.41-1.58-2.52-1.05-4.64-2.55-6.37-4.49-1.95-2.32-3.32-5.44-4.12-9.33-.79-3.9-1.19-11.21-1.19-21.93,0-16.88,1.5-27.98,4.49-33.3,3-5.32,8.38-7.98,16.15-7.98,3.32,0,6.22.7,8.72,2.1,2.5,1.4,4.75,3.57,6.74,6.5V2.96h21.93ZM421.78,43.8c-2.77,0-4.67,1.36-5.69,4.07-1.02,2.71-1.53,8.71-1.53,18s.47,15.71,1.43,18.1c.95,2.39,2.7,3.58,5.24,3.58,2.91,0,4.92-1.44,6.03-4.32,1.11-2.88,1.67-10.47,1.67-22.78,0-6.32-.54-10.68-1.6-13.06-1.06-2.39-2.92-3.58-5.55-3.58Z"/>
          <path class="bo" d="M509.35,63.93h24.12c.05.61.08,1.25.11,1.94.03.69.04,1.72.04,3.1,0,12.17-2.8,21.2-8.41,27.09-5.61,5.89-14.19,8.83-25.76,8.83-6.81,0-12.64-1.08-17.5-3.23-4.86-2.15-8.78-5.41-11.78-9.77-2.09-3.1-3.59-7.42-4.49-12.93-.91-5.52-1.36-14.27-1.36-26.25s.46-20.71,1.36-26.22c.9-5.51,2.4-9.82,4.49-12.91,2.95-4.3,6.83-7.54,11.64-9.72,4.81-2.17,10.55-3.26,17.22-3.26,11.48,0,20.09,3.03,25.83,9.08,5.74,6.05,8.61,15.11,8.61,27.17v.96l-23.83-.06c-.09-6.73-.91-11.46-2.45-14.18-1.54-2.72-4.13-4.09-7.75-4.09-3.95,0-6.64,1.66-8.09,4.99-1.45,3.33-2.17,12.11-2.17,26.36v1.87c0,15.36.72,24.78,2.17,28.24,1.45,3.46,4.14,5.2,8.08,5.2,3.67,0,6.24-1.26,7.71-3.78,1.47-2.52,2.21-7.2,2.21-14.05v-4.39Z"/>
          <path class="ca" d="M542.03,102.54l22.85-99.58h29.12l22.58,99.58h-24.49l-3.06-19.16h-19.25l-3.06,19.16h-24.69ZM572.3,65.46h14.08l-7-43.43-7.08,43.43Z"/>
          <path class="bq" d="M626.13,102.54V2.96h34.35l9.37,42.35c.05.22.42,2.88,1.13,7.99.71,5.11,1.44,10.23,2.22,15.36.59-3.84,1.33-8.59,2.22-14.26.88-5.67,1.4-8.8,1.54-9.41l9.31-42.03h34.01v99.58h-23.1l2.11-76.95-16.73,76.95h-18.71l-16.73-76.95,2.11,76.95h-23.1Z"/>
        </g>
      </g>
      <g id="k" data-name="Sign">
        <g>
          <path class="br" d="M192.74,124.25v3.3h-6.47v19.23h-3.79v-19.23h-6.5v-3.3h16.75Z"/>
          <path class="br" d="M194.95,124.25h3.49v7.61c.69-.98,1.86-1.7,3.98-1.7,3.36,0,5.94,1.7,5.94,6.4v10.22h-3.46v-9.83c0-2.87-1.31-3.69-3.1-3.69-2.16,0-3.36,1.47-3.36,3.66v9.86h-3.49v-22.53Z"/>
          <path class="br" d="M224.08,144.3c-1.14,1.99-2.97,2.78-5.84,2.78-4.67,0-7.15-3.04-7.15-7.38v-2.22c0-4.8,2.35-7.31,6.63-7.31s6.6,2.68,6.6,7.51v1.8h-9.76v.07c0,2.55.98,4.54,3.56,4.54,1.93,0,2.71-.59,3.36-1.6l2.61,1.83ZM214.57,136.79h6.24c-.13-2.38-1.11-3.59-3.1-3.59s-2.97,1.37-3.13,3.59Z"/>
          <path class="br" d="M250.27,124.25v3.3h-10.02v5.94h9.04v3.27h-9.04v6.76h10.02v3.27h-13.81v-22.53h13.81Z"/>
          <path class="br" d="M265.3,144.3c-1.08,1.93-3,2.78-5.81,2.78-4.57,0-7.18-2.94-7.18-7.38v-2.22c0-4.7,2.64-7.31,7.31-7.31,2.48,0,4.54.91,5.68,2.64l-2.68,1.86c-.62-.88-1.67-1.47-3.07-1.47-2.55,0-3.79,1.63-3.79,4.44v1.89c0,2.55.91,4.54,3.79,4.54,1.37,0,2.48-.49,3.1-1.6l2.65,1.83Z"/>
          <path class="br" d="M280.47,139.63c0,4.34-2.12,7.45-6.92,7.45s-6.96-2.94-6.96-7.45v-2.06c0-4.8,2.55-7.41,6.96-7.41s6.92,2.61,6.92,7.41v2.06ZM277.01,139.53v-1.89c0-2.84-1.14-4.44-3.46-4.44s-3.49,1.63-3.49,4.44v1.89c0,2.55.85,4.54,3.49,4.54,2.48,0,3.46-1.99,3.46-4.54Z"/>
          <path class="br" d="M292.24,134.73c-.78-1.01-1.6-1.47-3.56-1.47-1.47,0-2.55.49-2.55,1.67,0,1.37,1.21,1.8,3.1,2.02,3.62.42,5.98,1.7,5.98,5.16,0,3-2.06,4.96-6.27,4.96-3.33,0-5.22-.91-6.56-2.71l2.64-1.89c.75,1.01,1.73,1.53,3.89,1.53,1.8,0,2.84-.65,2.84-1.8,0-1.34-.85-1.73-3.4-2.06-3.1-.39-5.71-1.7-5.71-5.13,0-2.91,2.12-4.87,6.11-4.87,2.68,0,4.8.69,6.07,2.71l-2.58,1.86Z"/>
          <path class="br" d="M300.08,130.45l4.15,11.49,3.72-11.49h3.59l-5.75,16.98c-1.4,4.18-2.61,5.55-7.18,5.55v-3.2c2.29,0,3.2-.36,4.02-2.81l-6.24-16.52h3.69Z"/>
          <path class="br" d="M322.31,134.73c-.78-1.01-1.6-1.47-3.56-1.47-1.47,0-2.55.49-2.55,1.67,0,1.37,1.21,1.8,3.1,2.02,3.62.42,5.98,1.7,5.98,5.16,0,3-2.06,4.96-6.27,4.96-3.33,0-5.22-.91-6.56-2.71l2.64-1.89c.75,1.01,1.73,1.53,3.89,1.53,1.8,0,2.84-.65,2.84-1.8,0-1.34-.85-1.73-3.4-2.06-3.1-.39-5.71-1.7-5.71-5.13,0-2.91,2.12-4.87,6.11-4.87,2.68,0,4.8.69,6.07,2.71l-2.58,1.86Z"/>
          <path class="br" d="M326.99,130.45h2.09v-3.59h3.46v3.59h3.46v3h-3.46v7.48c0,1.89.29,2.71,2.12,2.71h1.34v3.13h-1.6c-3.92,0-5.32-1.34-5.32-5.19v-8.13h-2.09v-3Z"/>
          <path class="br" d="M350.74,144.3c-1.14,1.99-2.97,2.78-5.84,2.78-4.67,0-7.15-3.04-7.15-7.38v-2.22c0-4.8,2.35-7.31,6.63-7.31s6.6,2.68,6.6,7.51v1.8h-9.76v.07c0,2.55.98,4.54,3.56,4.54,1.93,0,2.71-.59,3.36-1.6l2.61,1.83ZM341.24,136.79h6.24c-.13-2.38-1.11-3.59-3.1-3.59s-2.97,1.37-3.13,3.59Z"/>
          <path class="br" d="M353.77,130.45h3.43v1.47c.65-.98,1.89-1.76,3.82-1.76,2.06,0,3.69.82,4.67,2.35,1.08-1.47,2.74-2.35,4.77-2.35,3.53,0,5.65,2.15,5.65,6.4v10.22h-3.49v-9.83c0-2.68-1.11-3.69-2.91-3.69s-2.97,1.31-3.04,3.49v10.02h-3.46v-9.83c0-2.78-1.21-3.69-2.87-3.69-1.8,0-3.07,1.37-3.07,3.66v9.86h-3.49v-16.33Z"/>
          <path class="br" d="M388.79,130.45v-1.01c0-3.85,1.4-5.19,5.32-5.19h1.01v3.13h-.75c-1.83,0-2.12.82-2.12,2.71v.36h2.87v3h-2.87v13.32h-3.46v-13.32h-2.09v-3h2.09Z"/>
          <path class="br" d="M410.5,139.63c0,4.34-2.12,7.45-6.92,7.45s-6.96-2.94-6.96-7.45v-2.06c0-4.8,2.55-7.41,6.96-7.41s6.92,2.61,6.92,7.41v2.06ZM407.04,139.53v-1.89c0-2.84-1.14-4.44-3.46-4.44s-3.49,1.63-3.49,4.44v1.89c0,2.55.85,4.54,3.49,4.54,2.48,0,3.46-1.99,3.46-4.54Z"/>
          <path class="br" d="M422.08,134.53c-.52-.75-1.24-1.27-2.35-1.27-1.76,0-3,1.31-3,3.66v9.86h-3.49v-16.33h3.43v1.47c.62-.95,1.73-1.76,3.66-1.76,2.09,0,3.53.82,4.54,2.42l-2.78,1.96Z"/>
          <path class="br" d="M435.18,146.78v-22.53h7.61c5.06,0,8.46,2.71,8.46,9.93v2.68c0,7.22-3.4,9.93-8.46,9.93h-7.61ZM447.46,136.85v-2.68c0-4.64-1.44-6.63-4.67-6.63h-3.82v15.97h3.82c3.23,0,4.67-2.02,4.67-6.66Z"/>
          <path class="br" d="M454.5,124.25h3.82v3.56h-3.82v-3.56ZM454.66,130.45h3.49v16.33h-3.49v-16.33Z"/>
          <path class="br" d="M471.45,130.45h3.46v16c0,5.03-2.87,6.73-7.12,6.73-2.94,0-4.77-.75-6.07-2.84l2.45-1.76c.72,1.08,1.73,1.63,3.53,1.63,2.61,0,3.75-1.11,3.75-3.76v-.75c-.88.91-2.19,1.37-3.92,1.37-4.34,0-6.5-3.1-6.5-7.38v-2.22c0-4.7,2.55-7.31,6.5-7.31,1.76,0,3.04.52,3.92,1.44v-1.14ZM471.45,139.53v-1.89c0-2.81-1.14-4.44-3.46-4.44s-3.49,1.6-3.49,4.44v1.89c0,2.55.98,4.54,3.49,4.54s3.46-1.99,3.46-4.54Z"/>
          <path class="br" d="M478.32,124.25h3.82v3.56h-3.82v-3.56ZM478.48,130.45h3.49v16.33h-3.49v-16.33Z"/>
          <path class="br" d="M484.36,130.45h2.09v-3.59h3.46v3.59h3.46v3h-3.46v7.48c0,1.89.29,2.71,2.12,2.71h1.34v3.13h-1.6c-3.92,0-5.32-1.34-5.32-5.19v-8.13h-2.09v-3Z"/>
          <path class="br" d="M501.4,137.14h3.53v-1.37c0-2.06-.78-2.61-3.23-2.61-1.76,0-2.64.2-3.43,1.47l-2.51-1.76c1.17-1.93,2.94-2.71,6.17-2.71,4.18,0,6.43,1.31,6.43,5.65v10.97h-3.43v-1.5c-.78,1.27-1.8,1.8-3.79,1.8-3.59,0-5.81-1.83-5.81-5.09,0-3.49,2.58-4.83,6.07-4.83ZM504.92,139.82h-3.27c-2.06,0-2.91.72-2.91,2.15s1.11,2.12,2.78,2.12c2.12,0,3.4-.65,3.4-3.49v-.78Z"/>
          <path class="br" d="M511.58,124.25h3.49v16.59c0,1.76.33,2.87,2.48,2.87v3.07c-4.25,0-5.98-1.37-5.98-5.13v-17.4Z"/>
          <path class="br" d="M539.66,137.31l6.5-13.06h3.62v22.53h-3.66v-15.09l-5.16,10.74h-2.68l-5.06-10.65v14.99h-3.66v-22.53h3.59l6.5,13.06Z"/>
          <path class="br" d="M558.85,137.14h3.53v-1.37c0-2.06-.78-2.61-3.23-2.61-1.76,0-2.64.2-3.43,1.47l-2.51-1.76c1.17-1.93,2.94-2.71,6.17-2.71,4.18,0,6.43,1.31,6.43,5.65v10.97h-3.43v-1.5c-.78,1.27-1.8,1.8-3.79,1.8-3.59,0-5.81-1.83-5.81-5.09,0-3.49,2.58-4.83,6.07-4.83ZM562.37,139.82h-3.27c-2.06,0-2.91.72-2.91,2.15s1.11,2.12,2.78,2.12c2.12,0,3.4-.65,3.4-3.49v-.78Z"/>
          <path class="br" d="M569.1,130.45h3.43v1.47c.72-.98,1.89-1.76,4.05-1.76,3.36,0,5.94,1.7,5.94,6.4v10.22h-3.46v-9.83c0-2.87-1.31-3.69-3.1-3.69-2.16,0-3.36,1.47-3.36,3.66v9.86h-3.49v-16.33Z"/>
          <path class="br" d="M599.13,146.78h-3.43v-1.47c-.75,1.18-1.73,1.76-4.02,1.76-3.36,0-5.98-1.73-5.98-6.43v-10.19h3.49v9.83c0,2.91,1.31,3.72,3.13,3.72,2.16,0,3.33-1.44,3.33-3.69v-9.86h3.46v16.33Z"/>
          <path class="br" d="M603.42,130.45v-1.01c0-3.85,1.4-5.19,5.32-5.19h1.01v3.13h-.75c-1.83,0-2.12.82-2.12,2.71v.36h2.87v3h-2.87v13.32h-3.46v-13.32h-2.09v-3h2.09Z"/>
          <path class="br" d="M617.4,137.14h3.53v-1.37c0-2.06-.78-2.61-3.23-2.61-1.76,0-2.64.2-3.43,1.47l-2.51-1.76c1.17-1.93,2.94-2.71,6.17-2.71,4.18,0,6.43,1.31,6.43,5.65v10.97h-3.43v-1.5c-.78,1.27-1.8,1.8-3.79,1.8-3.59,0-5.81-1.83-5.81-5.09,0-3.49,2.58-4.83,6.07-4.83ZM620.93,139.82h-3.27c-2.06,0-2.91.72-2.91,2.15s1.11,2.12,2.78,2.12c2.12,0,3.4-.65,3.4-3.49v-.78Z"/>
          <path class="br" d="M640.05,144.3c-1.08,1.93-3,2.78-5.81,2.78-4.57,0-7.18-2.94-7.18-7.38v-2.22c0-4.7,2.64-7.31,7.31-7.31,2.48,0,4.54.91,5.68,2.64l-2.68,1.86c-.62-.88-1.67-1.47-3.07-1.47-2.55,0-3.79,1.63-3.79,4.44v1.89c0,2.55.91,4.54,3.79,4.54,1.37,0,2.48-.49,3.1-1.6l2.65,1.83Z"/>
          <path class="br" d="M641.51,130.45h2.09v-3.59h3.46v3.59h3.46v3h-3.46v7.48c0,1.89.29,2.71,2.12,2.71h1.34v3.13h-1.6c-3.92,0-5.32-1.34-5.32-5.19v-8.13h-2.09v-3Z"/>
          <path class="br" d="M666.34,146.78h-3.43v-1.47c-.75,1.18-1.73,1.76-4.02,1.76-3.36,0-5.98-1.73-5.98-6.43v-10.19h3.49v9.83c0,2.91,1.31,3.72,3.13,3.72,2.16,0,3.33-1.44,3.33-3.69v-9.86h3.46v16.33Z"/>
          <path class="br" d="M678.51,134.53c-.52-.75-1.24-1.27-2.35-1.27-1.76,0-3,1.31-3,3.66v9.86h-3.49v-16.33h3.43v1.47c.62-.95,1.73-1.76,3.66-1.76,2.09,0,3.53.82,4.54,2.42l-2.78,1.96Z"/>
          <path class="br" d="M683.1,124.25h3.82v3.56h-3.82v-3.56ZM683.27,130.45h3.49v16.33h-3.49v-16.33Z"/>
          <path class="br" d="M690.27,130.45h3.43v1.47c.72-.98,1.89-1.76,4.05-1.76,3.36,0,5.94,1.7,5.94,6.4v10.22h-3.46v-9.83c0-2.87-1.31-3.69-3.1-3.69-2.16,0-3.36,1.47-3.36,3.66v9.86h-3.49v-16.33Z"/>
          <path class="br" d="M716.82,130.45h3.46v16c0,5.03-2.87,6.73-7.12,6.73-2.94,0-4.77-.75-6.07-2.84l2.45-1.76c.72,1.08,1.73,1.63,3.53,1.63,2.61,0,3.75-1.11,3.75-3.76v-.75c-.88.91-2.19,1.37-3.92,1.37-4.34,0-6.5-3.1-6.5-7.38v-2.22c0-4.7,2.55-7.31,6.5-7.31,1.76,0,3.04.52,3.92,1.44v-1.14ZM716.82,139.53v-1.89c0-2.81-1.14-4.44-3.46-4.44s-3.49,1.6-3.49,4.44v1.89c0,2.55.98,4.54,3.49,4.54s3.46-1.99,3.46-4.54Z"/>
        </g>
        <g>
          <path class="bm" d="M131.09,93.64c0,20.68-29.35,37.45-65.55,37.45S0,114.32,0,93.64s29.35-37.45,65.54-37.45,65.55,16.77,65.55,37.45Z"/>
          <path class="bv" d="M3.57,118.94c2.42,19.82,29.26,35.43,62,35.43s59.53-15.58,61.99-35.38l3.19-21.56c-3.32,18.9-31.25,33.66-65.21,33.66S2.44,115.68.15,96.19l3.42,22.76Z"/>
          <path class="cp" d="M119.54,90.44c-1.66-2.16-3.79-3.98-5.44-4.97-2.22-1.32-9.59-6.49-21.57-10.12-2.35-2.15-5.96-3.7-8.9-4.75-4.02-1.43-10.36-2.87-13.71.02-.41.35-.66.71-.79,1.07h0c-10.07.02-19.39,2.95-23.89,7.17h-.02c-2.14-3.03-3.51-6.5-2.54-9.63,2.05-6.66,15.42-11.7,29.47-10.9,24.09,1.37,38.64,11.74,41.93,13.7,3.29,1.96,8.53,7.32,8.04,11.87-.22,2.04-1.03,4.25-2.5,6.58"/>
          <path class="bp" d="M12.3,101.09c-8.1-14.81,12.23-23.44,12.23-23.44v13.44s-8.36,3.55-12.23,10.01h0Z"/>
          <path class="ci" d="M38.18,98.58v-4.5c0-2.34,4.88-6.26,4.88-6.26l-18.52-10.18v13.44l13.64,7.49Z"/>
          <path class="cg" d="M61.71,113.53v-13.44c0,1.96-1.35,4.81-10,3.92-7.58-.78-13.53-7-13.53-9.92v13.44c0,2.91,5.94,9.13,13.53,9.91,8.64.89,10-1.95,10-3.91Z"/>
          <path class="cj" d="M45.26,78.87c4.5-4.23,13.82-7.15,23.89-7.17l-.09,13.8c-.3,2.67,5.72,5.8,10.32,10.03,2.27,2.09,9.52,7.84,12.94,14.09h.02c-.86,1.53-2.19,3.08-4.31,4.96-18.15,16.11-52.81,9.41-69.7-6.14-2.82-2.59-4.76-5.04-6.02-7.34h0c3.86-6.45,12.23-10,12.23-10l13.64,7.5v-.03s0,8.97,0,8.97c0,2.92,5.94,9.13,13.53,9.92,8.64.89,9.99-1.96,9.99-3.92v-13.44c0-3.16-7.75-11.98-13.28-17.48-1.16-1.15-2.19-2.34-3.17-3.74Z"/>
          <path class="bu" d="M92.22,109.79c1.15-1.97,1.54-3.89,1.86-6.41,1.09-8.52-11.56-18.42-14.7-21.31-4.6-4.22-10.62-7.36-10.31-10.02v13.44c-.3,2.67,5.72,5.8,10.31,10.02,2.22,2.04,9.32,8.22,12.84,14.27Z"/>
          <path class="cn" d="M92.54,75.36c11.98,3.63,19.35,8.8,21.57,10.12,1.65.98,3.78,2.81,5.44,4.97v.23c-1.26,1.94-2.97,3.95-5.19,6.02l-24.27-11.48s6-3.65,4.52-7.17c-.39-.93-1.09-1.8-1.98-2.61l-.09-.07Z"/>
          <path class="bb" d="M53.36,49.94c0,1.2-1.6,2.18-3.57,2.18s-3.57-.98-3.57-2.18,1.6-2.18,3.57-2.18,3.57.98,3.57,2.18Z"/>
          <path class="cw" d="M46,71.56c-.52-.8-.49-1.32-.49-1.32h.72s.03,1.23,1.59,1.8c-.86-.09-1.47-.24-1.82-.48Z"/>
          <path class="bd" d="M45.5,70.24l-.03,1.6.53-.28c-.52-.8-.49-1.32-.49-1.32Z"/>
          <path class="cq" d="M47.81,72.05l.99-.75s1.05-1.66,1.99-1.49c.94.16.86.6.86.6,0,0,.2.67-1.8,2,0,.26-.02.57-.02.57,0,0-2.21,1.53-3.19,1.71-.1-.7-.63-2.01-1.17-2.83l.53-.28c.34.24.96.39,1.82.48Z"/>
          <path class="ce" d="M46.7,79.73c3.81-2.62,6.52-4.59,6.66-10.92,0,4.49-6.14,7.27-7.84,8.05.49.75,1.19,2.28,1.19,2.87Z"/>
          <path class="ba" d="M51.74,72.69c.26-.29.49-.6.7-.92h0c-1.03.61-2.59.63-2.59.63,0,.26-.02.57-.02.57,0,0,1.03.04,1.91-.27h0Z"/>
          <path class="cf" d="M51.73,72.7c-1.95,2.23-5.07,3.64-6.21,4.16v-1.71l1.12-.48c.98-.18,3.19-1.71,3.19-1.71,0,0,.99.03,1.85-.26"/>
          <path class="ch" d="M53.36,68.81c.68.26.72,1.06.72,1.37l-.8-.03h.01c.03-.43.06-.87.07-1.34Z"/>
          <path class="bt" d="M45.48,80.27l.02,1.54c4.57-1.69,7.2-4.39,8.43-8.09.2-1.2.24-2.59.15-3.53-.03,2.63-1.01,6.95-8.6,10.09Z"/>
          <path class="bw" d="M46.69,79.74c6.49-3.08,7.36-7.07,7.39-9.55l-.8-.03h.01c-.47,5.28-3.06,7.14-6.59,9.57h-.01Z"/>
          <path class="bx" d="M53.93,73.72c.69,3.52-.76,8.08-7.24,10.95h.01c3.47-2.39,6.02-4.23,6.56-9.31h0c.26-.53.48-1.07.67-1.64Z"/>
          <path class="cc" d="M53.26,75.36c-.52,4.96-2.97,6.82-6.31,9.13-.59-.32-.82-1.66-1.45-2.68,3.86-1.43,6.34-3.58,7.76-6.45h0Z"/>
          <path class="cs" d="M46.69,84.67v2.47l.65.12s.08-1.13.66-1.54c.8-.56,4.7-2.43,5.93-7.03.41-1.54.15-3.07.15-3.07h0c-.11,3.14-2.03,6.67-7.39,9.05h.01s-.01,0-.01,0Z"/>
          <path class="cv" d="M50.63,85.78l2.21,1.44-.05-2.37c-.69.29-1.43.62-2.15.94Z"/>
          <path class="bg" d="M54.05,80.77c-.11,1.34-.5,2.73-1.27,4.08l.05,2.37.52-.56s.21-2.12.29-2.21c.08-.08.68-1.92.41-3.68h0Z"/>
          <path class="cr" d="M53.22,80.57c-.08,1.2-.74,3.82-1.66,4.8.42-.18.83-.36,1.22-.52,1.21-2.12,1.48-4.38,1.19-6.35-.01.06-.03.13-.04.2-.18.68-.43,1.31-.71,1.88Z"/>
          <path class="co" d="M47.34,87.26s.08-1.13.66-1.54c.68-.48,3.61-1.9,5.22-5.15h0c-.08,1.2-.74,3.82-1.66,4.8h0c-1.61.7-3.27,1.47-4.22,1.89Z"/>
          <path class="cu" d="M53.36,49.94c0,1.2-1.6,2.18-3.57,2.18s-3.57-.98-3.57-2.18v18.04c1.13,2.26.06,2.02,0,2.27,0,0,.03,1.23,1.59,1.8l.99-.75s1.05-1.66,1.99-1.49c.94.16.86.6.86.6,0,0,.2.67-1.8,2,0,0,1.56-.02,2.59-.63.52-.81.87-1.71.92-2.69v-19.13Z"/>
          <path class="bb" d="M52.61,49.33c0,.96-1.26,1.73-2.81,1.73s-2.81-.78-2.81-1.73,1.26-1.74,2.81-1.74,2.81.78,2.81,1.74Z"/>
          <path class="cb" d="M43.43,62.89l-1.51-7.49h15.76s-1.51,7.49-1.51,7.49c-.01.07-.03.14-.07.2-.45.68-2.95,1.98-6.3,1.98-3.35,0-5.85-1.3-6.3-1.98-.04-.06-.06-.13-.07-.2Z"/>
          <path class="aw" d="M59.94,40.44c0,2.22-4.52,4.03-10.1,4.03s-10.1-1.8-10.1-4.03,4.52-4.03,10.1-4.03,10.1,1.8,10.1,4.03Z"/>
          <path class="aw" d="M63.58,46.24c0,2.97-6.28,5.38-14.01,5.38s-14.02-2.41-14.02-5.38,6.28-5.38,14.02-5.38,14.01,2.41,14.01,5.38Z"/>
          <path class="bi" d="M66.67,47.99c0,3.91-7.55,7.08-16.87,7.08s-16.88-3.17-16.88-7.08,7.56-7.09,16.88-7.09,16.87,3.17,16.87,7.09Z"/>
          <path class="bh" d="M63.58,46.24c0,2.97-6.28,5.38-14.01,5.38s-14.02-2.41-14.02-5.38,6.28-5.38,14.02-5.38,14.01,2.41,14.01,5.38Z"/>
          <path class="bc" d="M66.67,42.31v-1.64c0,3.91-7.55,7.08-16.87,7.08s-16.88-3.17-16.88-7.08v1.64c0,3.91,7.56,7.09,16.88,7.09s16.87-3.17,16.87-7.09Z"/>
          <path class="bi" d="M66.67,40.67c0,3.91-7.55,7.08-16.87,7.08s-16.88-3.17-16.88-7.08,7.56-7.08,16.88-7.08,16.87,3.17,16.87,7.08Z"/>
          <path class="cl" d="M66.67,49.63v-1.64c0,3.91-7.55,7.08-16.87,7.08s-16.88-3.17-16.88-7.08v1.64c0,3.91,7.56,7.08,16.88,7.08s16.87-3.17,16.87-7.08Z"/>
          <path class="az" d="M31.07,81.23l11.99,6.59s-4.87,3.91-4.87,6.26c0,2.91,5.94,9.13,13.53,9.92,8.64.89,10-1.96,10-3.92,0-3.15-7.75-11.98-13.29-17.48-1.98-1.97-3.92-4.43-5.05-6.98"/>
          <g>
            <path class="bj" d="M59.94,40.42l-6.92-34.83c0,.83-1.96,1.49-4.37,1.49s-4.37-.67-4.37-1.49l-4.55,34.83c0,2.23,4.52,4.04,10.1,4.04s10.1-1.81,10.1-4.04Z"/>
            <path id="ao" data-name="Verlauf rechts" class="bf" d="M59.94,40.42l-6.92-34.83c0,.83-1.96,1.49-4.37,1.49s-4.37-.67-4.37-1.49l-4.55,34.83c0,2.23,4.52,4.04,10.1,4.04s10.1-1.81,10.1-4.04Z"/>
            <path id="aq" data-name="Verlauf links" class="be" d="M59.94,40.42l-6.92-34.83c0,.83-1.96,1.49-4.37,1.49s-4.37-.67-4.37-1.49l-4.55,34.83c0,2.23,4.52,4.04,10.1,4.04s10.1-1.81,10.1-4.04Z"/>
          </g>
          <path class="ck" d="M51.41.77c0,.43-1.31.77-2.93.77s-2.94-.35-2.94-.77,1.31-.77,2.94-.77,2.93.35,2.93.77Z"/>
          <path class="av" d="M50.2,4.99c0,.26-.73.46-1.62.46s-1.62-.2-1.62-.46.72-.46,1.62-.46,1.62.2,1.62.46Z"/>
          <path class="ay" d="M52.29,5.01c0,.61-1.62,1.1-3.61,1.1s-3.61-.49-3.61-1.1,1.61-1.1,3.61-1.1,3.61.49,3.61,1.1Z"/>
          <path class="bn" d="M51.68,2.59v-1.33c0,.47-1.45.85-3.24.85s-3.24-.38-3.24-.85v1.33c0,.47,1.45.85,3.24.85s3.24-.38,3.24-.85Z"/>
          <path class="ax" d="M46.82,5.06v-1.74h0c.48.08,1.03.11,1.62.11.66,0,1.27-.05,1.78-.14h0s0,1.7,0,1.7v.06c0,.48-.76.68-1.7.68s-1.7-.2-1.7-.68Z"/>
          <path class="cm" d="M44.55,5.13l.88-.59-.07.04c-.18.13-.28.28-.28.43,0,.61,1.61,1.1,3.61,1.1s3.61-.49,3.61-1.1c0-.17-.13-.33-.36-.48h0s.82.6.82.6l-.04-.04c.2.17.31.35.31.54,0,.81-1.96,1.46-4.37,1.46s-4.37-.65-4.37-1.46c0-.18.09-.35.27-.5Z"/>
          <path class="ct" d="M51.66,1.15s.02.06.02.1c0,.47-1.45.85-3.24.85s-3.24-.38-3.24-.85c0-.05.02-.11.06-.16h0s.36-.49.36-.49h0c-.05.06-.07.11-.07.17,0,.43,1.31.77,2.94.77s2.93-.35,2.93-.77c0-.06-.02-.12-.07-.17h0s.33.56.33.56h0Z"/>
        </g>
      </g>
    </g>
  </g>
</svg>